# 3ds Max Wavefront OBJ Exporter v0.97b - (c)2007 guruware
# File Created: 23.11.2015 14:44:26

mtllib crate.mtl

#
# object crate
#

v  3.3988 0.0000 -36.5825
v  2.5988 0.0000 -35.7825
v  1.7676 0.0000 -35.7825
v  -5.8012 0.0000 -35.7825
v  -6.6012 0.0000 -36.5825
v  -4.9699 0.0000 -27.3825
v  2.5988 0.0000 -27.3825
v  3.3988 0.0000 -26.5825
v  -5.8012 0.0000 -27.3825
v  -6.6012 0.0000 -26.5825
v  -4.9699 10.0000 -35.7825
v  2.5988 10.0000 -35.7825
v  3.3988 10.0000 -36.5825
v  -5.8012 10.0000 -35.7825
v  -6.6012 10.0000 -36.5825
v  3.3988 10.0000 -26.5825
v  2.5988 10.0000 -27.3825
v  1.7676 10.0000 -27.3825
v  -5.8012 10.0000 -27.3825
v  -6.6012 10.0000 -26.5825
v  3.3988 9.2000 -35.7825
v  3.3988 8.3687 -35.7825
v  3.3988 0.8000 -35.7825
v  3.3988 1.6313 -27.3825
v  3.3988 9.2000 -27.3825
v  3.3988 0.8000 -27.3825
v  -6.6012 8.3687 -27.3825
v  -6.6012 0.8000 -27.3825
v  -6.6012 9.2000 -27.3825
v  -6.6012 1.6313 -35.7825
v  -6.6012 9.2000 -35.7825
v  -6.6012 0.8000 -35.7825
v  2.5988 0.0000 -34.9513
v  -5.8012 10.0000 -34.9513
v  2.5988 10.0000 -28.2138
v  2.5988 9.2000 -26.5825
v  2.5988 8.3687 -26.5825
v  2.5988 0.8000 -26.5825
v  -5.8012 9.2000 -36.5825
v  -5.8012 8.3687 -36.5825
v  -5.8012 0.8000 -36.5825
v  2.5988 1.6313 -36.5825
v  2.5988 9.2000 -36.5825
v  2.5988 0.8000 -36.5825
v  -4.9699 0.8000 -26.5825
v  -5.8012 0.8000 -26.5825
v  3.3988 9.2000 -34.9513
v  3.3988 0.8000 -28.2138
v  -4.9699 9.2000 -36.5825
v  1.7676 0.8000 -36.5825
v  -6.6012 9.2000 -28.2138
v  -6.6012 0.8000 -34.9513
v  -4.9699 0.3844 -27.3825
v  2.5988 0.3844 -34.9513
v  2.5988 0.3844 -27.3825
v  1.7676 9.6156 -27.3825
v  -5.8012 9.6156 -34.9513
v  -5.8012 9.6156 -27.3825
v  2.5988 0.8000 -26.9670
v  2.5988 8.3687 -26.9670
v  -4.9699 0.8000 -26.9670
v  -5.8012 0.8000 -36.1981
v  -5.8012 8.3687 -36.1981
v  1.7676 0.8000 -36.1981
v  3.0144 0.8000 -35.7825
v  3.0144 8.3687 -35.7825
v  3.0144 0.8000 -28.2138
v  -6.2168 0.8000 -27.3825
v  -6.2168 8.3687 -27.3825
v  -6.2168 0.8000 -34.9513
v  2.5988 9.6156 -28.2138
v  2.5988 9.6156 -35.7825
v  -4.9699 9.6156 -35.7825
v  3.0144 9.2000 -34.9513
v  3.0144 9.2000 -27.3825
v  3.0144 1.6313 -27.3825
v  -5.8012 0.0000 -28.2138
v  -5.8012 0.3844 -28.2138
v  -5.8012 0.3844 -35.7825
v  1.7676 0.3844 -35.7825
v  -6.2168 9.2000 -28.2138
v  -6.2168 9.2000 -35.7825
v  -6.2168 1.6313 -35.7825
v  1.7676 9.2000 -26.5825
v  -5.8012 1.6313 -26.5825
v  1.7676 9.2000 -26.9670
v  -5.8012 9.2000 -26.9670
v  -5.8012 1.6313 -26.9670
v  -4.9699 9.2000 -36.1981
v  2.5988 9.2000 -36.1981
v  2.5988 1.6313 -36.1981
v  -5.8012 9.2000 -26.5825
# 92 vertices

vn 0.0000 -1.0000 -0.0000
vn 0.0000 1.0000 -0.0000
vn 1.0000 0.0000 -0.0000
vn -1.0000 0.0000 -0.0000
vn 0.0000 0.0000 1.0000
vn 0.0000 0.0000 -1.0000
vn 0.7071 0.0000 0.7071
vn -0.7071 0.0000 0.7071
vn 0.7071 -0.7071 -0.0000
vn -0.7071 -0.7071 -0.0000
vn 0.0000 -0.7071 -0.7071
vn 0.0000 -0.7071 0.7071
vn 0.7071 0.0000 -0.7071
vn 0.0000 0.7071 0.7071
vn -0.7071 0.0000 -0.7071
vn 0.0000 0.7071 -0.7071
vn -0.7071 0.7071 -0.0000
vn 0.7071 0.7071 -0.0000
# 18 vertex normals

vt 0.2263 0.2347 0.0000
vt 0.2084 0.2527 0.0000
vt 0.1897 0.2527 0.0000
vt 0.0199 0.2527 0.0000
vt 0.0020 0.2347 0.0000
vt 0.0386 0.4411 0.0000
vt 0.2084 0.4411 0.0000
vt 0.2263 0.4590 0.0000
vt 0.0199 0.4411 0.0000
vt 0.0020 0.4590 0.0000
vt 0.2713 0.2084 0.0000
vt 0.4411 0.2084 0.0000
vt 0.4590 0.2263 0.0000
vt 0.2527 0.2084 0.0000
vt 0.2347 0.2263 0.0000
vt 0.4590 0.0020 0.0000
vt 0.4411 0.0199 0.0000
vt 0.4225 0.0199 0.0000
vt 0.2527 0.0199 0.0000
vt 0.2347 0.0020 0.0000
vt 0.2263 0.6918 0.0000
vt 0.2084 0.6738 0.0000
vt 0.2084 0.6552 0.0000
vt 0.2084 0.4854 0.0000
vt 0.2263 0.4675 0.0000
vt 0.0199 0.5041 0.0000
vt 0.0199 0.6738 0.0000
vt 0.0020 0.6918 0.0000
vt 0.0199 0.4854 0.0000
vt 0.0020 0.4675 0.0000
vt 0.4411 0.4225 0.0000
vt 0.4411 0.2527 0.0000
vt 0.4590 0.2347 0.0000
vt 0.4411 0.4411 0.0000
vt 0.4590 0.4590 0.0000
vt 0.2527 0.2713 0.0000
vt 0.2527 0.4411 0.0000
vt 0.2347 0.4590 0.0000
vt 0.2527 0.2527 0.0000
vt 0.2347 0.2347 0.0000
vt 0.2084 0.2713 0.0000
vt 0.2527 0.1897 0.0000
vt 0.4411 0.0386 0.0000
vt 0.2263 0.9245 0.0000
vt 0.2084 0.9066 0.0000
vt 0.2084 0.8879 0.0000
vt 0.2084 0.7182 0.0000
vt 0.2263 0.7002 0.0000
vt 0.2263 0.2263 0.0000
vt 0.2084 0.2084 0.0000
vt 0.2084 0.1897 0.0000
vt 0.2084 0.0199 0.0000
vt 0.2263 0.0020 0.0000
vt 0.0199 0.0386 0.0000
vt 0.0199 0.2084 0.0000
vt 0.0020 0.2263 0.0000
vt 0.0199 0.0199 0.0000
vt 0.0020 0.0020 0.0000
vt 0.0386 0.7182 0.0000
vt 0.0199 0.7182 0.0000
vt 0.0020 0.7002 0.0000
vt 0.1897 0.6738 0.0000
vt 0.0386 0.4854 0.0000
vt 0.1897 0.2084 0.0000
vt 0.0386 0.0199 0.0000
vt 0.4225 0.4411 0.0000
vt 0.2713 0.2527 0.0000
vt 0.4736 0.4106 0.0000
vt 0.6433 0.2408 0.0000
vt 0.6433 0.4106 0.0000
vt 0.4131 0.6690 0.0000
vt 0.2434 0.8388 0.0000
vt 0.2434 0.6690 0.0000
vt 0.6433 0.8221 0.0000
vt 0.6433 0.9919 0.0000
vt 0.4736 0.8221 0.0000
vt 0.8363 0.0106 0.0000
vt 0.8363 0.1804 0.0000
vt 0.6665 0.0106 0.0000
vt 0.8363 0.2434 0.0000
vt 0.8363 0.4131 0.0000
vt 0.6665 0.2434 0.0000
vt 0.6433 0.0106 0.0000
vt 0.6433 0.1804 0.0000
vt 0.4736 0.0106 0.0000
vt 0.6433 0.6267 0.0000
vt 0.6433 0.7965 0.0000
vt 0.4736 0.7965 0.0000
vt 0.8388 0.9894 0.0000
vt 0.6690 0.9894 0.0000
vt 0.6690 0.8196 0.0000
vt 0.0199 0.4225 0.0000
vt 0.6690 0.6061 0.0000
vt 0.6690 0.4363 0.0000
vt 0.8388 0.4363 0.0000
vt 0.6459 0.6035 0.0000
vt 0.4761 0.6035 0.0000
vt 0.4761 0.4338 0.0000
vt 0.1897 0.9066 0.0000
vt 0.0199 0.7368 0.0000
vt 0.8388 0.7965 0.0000
vt 0.6690 0.7965 0.0000
vt 0.6690 0.6267 0.0000
vt 0.4131 0.6433 0.0000
vt 0.2434 0.6433 0.0000
vt 0.2434 0.4736 0.0000
vt 0.4675 0.4045 0.0000
vt 0.6372 0.2347 0.0000
vt 0.6520 0.2408 0.0000
vt 0.6520 0.4106 0.0000
vt 0.6433 0.4192 0.0000
vt 0.4736 0.4192 0.0000
vt 0.4192 0.6751 0.0000
vt 0.2495 0.8449 0.0000
vt 0.2347 0.8388 0.0000
vt 0.2347 0.6690 0.0000
vt 0.2434 0.6604 0.0000
vt 0.4131 0.6604 0.0000
vt 0.6520 0.8221 0.0000
vt 0.6520 0.9919 0.0000
vt 0.6372 0.9980 0.0000
vt 0.4675 0.8282 0.0000
vt 0.4736 0.8135 0.0000
vt 0.6433 0.8135 0.0000
vt 0.8449 0.0106 0.0000
vt 0.8449 0.1804 0.0000
vt 0.8302 0.1865 0.0000
vt 0.6604 0.0167 0.0000
vt 0.6665 0.0020 0.0000
vt 0.8363 0.0020 0.0000
vt 0.8449 0.2434 0.0000
vt 0.8449 0.4131 0.0000
vt 0.8302 0.4192 0.0000
vt 0.6604 0.2495 0.0000
vt 0.6665 0.2347 0.0000
vt 0.8363 0.2347 0.0000
vt 0.6520 0.0106 0.0000
vt 0.6520 0.1804 0.0000
vt 0.6372 0.1865 0.0000
vt 0.4675 0.0167 0.0000
vt 0.4736 0.0020 0.0000
vt 0.6433 0.0020 0.0000
vt 0.6520 0.6267 0.0000
vt 0.6520 0.7965 0.0000
vt 0.6433 0.8051 0.0000
vt 0.4736 0.8051 0.0000
vt 0.4675 0.7904 0.0000
vt 0.6372 0.6206 0.0000
vt 0.8388 0.9980 0.0000
vt 0.6690 0.9980 0.0000
vt 0.6604 0.9894 0.0000
vt 0.6604 0.8196 0.0000
vt 0.6751 0.8135 0.0000
vt 0.8449 0.9833 0.0000
vt 0.6604 0.6061 0.0000
vt 0.6604 0.4363 0.0000
vt 0.6690 0.4277 0.0000
vt 0.8388 0.4277 0.0000
vt 0.8449 0.4424 0.0000
vt 0.6751 0.6122 0.0000
vt 0.6459 0.6122 0.0000
vt 0.4761 0.6122 0.0000
vt 0.4675 0.6035 0.0000
vt 0.4675 0.4338 0.0000
vt 0.4822 0.4277 0.0000
vt 0.6520 0.5974 0.0000
vt 0.8388 0.8051 0.0000
vt 0.6690 0.8051 0.0000
vt 0.6604 0.7965 0.0000
vt 0.6604 0.6267 0.0000
vt 0.6751 0.6206 0.0000
vt 0.8449 0.7904 0.0000
vt 0.4131 0.6520 0.0000
vt 0.2434 0.6520 0.0000
vt 0.2347 0.6433 0.0000
vt 0.2347 0.4736 0.0000
vt 0.2495 0.4675 0.0000
vt 0.4192 0.6372 0.0000
vt 0.0020 0.9245 0.0000
vt 0.0199 0.9066 0.0000
# 180 texture coords

g crate
usemtl Crate
s 2
f 1/1/1 2/2/1 3/3/1 4/4/1 
f 1/1/1 4/4/1 5/5/1 
f 6/6/1 7/7/1 8/8/1 9/9/1 
f 10/10/1 9/9/1 8/8/1 
s 4
f 11/11/2 12/12/2 13/13/2 14/14/2 
f 15/15/2 14/14/2 13/13/2 
f 16/16/2 17/17/2 18/18/2 19/19/2 
f 16/16/2 19/19/2 20/20/2 
s 16
f 13/21/3 21/22/3 22/23/3 23/24/3 
f 13/21/3 23/24/3 1/25/3 
f 24/26/3 25/27/3 16/28/3 26/29/3 
f 8/30/3 26/29/3 16/28/3 
s 64
f 27/31/4 28/32/4 10/33/4 29/34/4 
f 20/35/4 29/34/4 10/33/4 
f 30/36/4 31/37/4 15/38/4 32/39/4 
f 5/40/4 32/39/4 15/38/4 
s 2
f 33/41/1 2/2/1 1/1/1 7/7/1 
f 8/8/1 7/7/1 1/1/1 
s 4
f 34/42/2 14/14/2 15/15/2 19/19/2 
f 20/20/2 19/19/2 15/15/2 
f 13/13/2 12/12/2 35/43/2 17/17/2 
f 13/13/2 17/17/2 16/16/2 
s 8
f 16/44/5 36/45/5 37/46/5 38/47/5 
f 16/44/5 38/47/5 8/48/5 
s 32
f 15/49/6 39/50/6 40/51/6 41/52/6 
f 15/49/6 41/52/6 5/53/6 
f 42/54/6 43/55/6 13/56/6 44/57/6 
f 1/58/6 44/57/6 13/56/6 
s 8
f 8/48/5 38/47/5 45/59/5 46/60/5 
f 8/48/5 46/60/5 10/61/5 
s 16
f 47/62/3 21/22/3 13/21/3 25/27/3 
f 16/28/3 25/27/3 13/21/3 
f 1/25/3 23/24/3 48/63/3 26/29/3 
f 1/25/3 26/29/3 8/30/3 
s 32
f 13/56/6 43/55/6 49/64/6 39/50/6 
f 13/56/6 39/50/6 15/49/6 
f 50/65/6 44/57/6 1/58/6 41/52/6 
f 5/53/6 41/52/6 1/58/6 
s 64
f 15/38/4 31/37/4 51/66/4 29/34/4 
f 15/38/4 29/34/4 20/35/4 
f 10/33/4 28/32/4 52/67/4 32/39/4 
f 10/33/4 32/39/4 5/40/4 
s 2
f 53/68/1 54/69/1 55/70/1 
s 4
f 56/71/2 57/72/2 58/73/2 
s 8
f 59/74/5 60/75/5 61/76/5 
s 32
f 62/77/6 63/78/6 64/79/6 
s 16
f 65/80/3 66/81/3 67/82/3 
s 64
f 68/83/4 69/84/4 70/85/4 
s 4
f 17/17/2 35/43/2 11/11/2 34/42/2 
f 11/11/2 14/14/2 34/42/2 
f 18/18/2 17/17/2 34/42/2 
f 71/86/2 72/87/2 73/88/2 
s 16
f 22/23/3 21/22/3 47/62/3 48/63/3 
f 24/26/3 26/29/3 48/63/3 47/62/3 
f 74/89/3 75/90/3 76/91/3 
s 2
f 9/9/1 77/92/1 3/3/1 33/41/1 
f 3/3/1 2/2/1 33/41/1 
f 6/6/1 9/9/1 33/41/1 
f 78/93/1 79/94/1 80/95/1 
s 64
f 27/31/4 29/34/4 51/66/4 52/67/4 
f 30/36/4 32/39/4 52/67/4 51/66/4 
f 81/96/4 82/97/4 83/98/4 
s 8
f 36/45/5 84/99/5 85/100/5 45/59/5 
f 85/100/5 46/60/5 45/59/5 
f 37/46/5 36/45/5 45/59/5 
f 86/101/5 87/102/5 88/103/5 
s 32
f 89/104/6 90/105/6 91/106/6 
f 40/51/6 39/50/6 49/64/6 50/65/6 
f 42/54/6 44/57/6 50/65/6 49/64/6 
s off
f 6/107/7 33/108/7 54/69/7 53/68/7 
f 33/109/4 7/110/4 55/70/4 54/69/4 
f 7/111/6 6/112/6 53/68/6 55/70/6 
f 18/113/8 34/114/8 57/72/8 56/71/8 
f 34/115/3 19/116/3 58/73/3 57/72/3 
f 19/117/6 18/118/6 56/71/6 58/73/6 
f 38/119/4 37/120/4 60/75/4 59/74/4 
f 37/121/9 45/122/9 61/76/9 60/75/9 
f 45/123/2 38/124/2 59/74/2 61/76/2 
f 41/125/3 40/126/3 63/78/3 62/77/3 
f 40/127/10 50/128/10 64/79/10 63/78/10 
f 50/129/2 41/130/2 62/77/2 64/79/2 
f 23/131/5 22/132/5 66/81/5 65/80/5 
f 22/133/11 48/134/11 67/82/11 66/81/11 
f 48/135/2 23/136/2 65/80/2 67/82/2 
f 28/137/6 27/138/6 69/84/6 68/83/6 
f 27/139/12 52/140/12 70/85/12 69/84/12 
f 52/141/2 28/142/2 68/83/2 70/85/2 
f 35/143/4 12/144/4 72/87/4 71/86/4 
f 12/145/5 11/146/5 73/88/5 72/87/5 
f 11/147/13 35/148/13 71/86/13 73/88/13 
f 47/149/1 25/150/1 75/90/1 74/89/1 
f 25/151/6 24/152/6 76/91/6 75/90/6 
f 24/153/14 47/154/14 74/89/14 76/91/14 
f 77/155/3 4/156/3 79/94/3 78/93/3 
f 4/157/5 3/158/5 80/95/5 79/94/5 
f 3/159/15 77/160/15 78/93/15 80/95/15 
f 51/161/1 31/162/1 82/97/1 81/96/1 
f 31/163/5 30/164/5 83/98/5 82/97/5 
f 30/165/16 51/166/16 81/96/16 83/98/16 
f 84/167/1 92/168/1 87/102/1 86/101/1 
f 92/169/3 85/170/3 88/103/3 87/102/3 
f 85/171/17 84/172/17 86/101/17 88/103/17 
f 49/173/1 43/174/1 90/105/1 89/104/1 
f 43/175/4 42/176/4 91/106/4 90/105/4 
f 42/177/18 49/178/18 89/104/18 91/106/18 
s 8
f 16/44/5 20/179/5 92/180/5 84/99/5 
f 16/44/5 84/99/5 36/45/5 
f 10/61/5 46/60/5 85/100/5 92/180/5 
f 20/179/5 10/61/5 92/180/5 
s 2
f 10/10/1 5/5/1 4/4/1 77/92/1 
f 10/10/1 77/92/1 9/9/1 
# 69 polygons - 42 triangles

